<svg xmlns="http://www.w3.org/2000/svg" width="100" height="100" viewBox="0 0 2000 2000">
  <defs>
    <style>
      .cls-1 {
        fill: #c5c3c0;
        stroke: #000;
        stroke-width: 1px;
        fill-rule: evenodd;
      }
    </style>
  </defs>
  <path id="steampd_logo" class="cls-1" d="M1000,0c552.28,0,1000,447.715,1000,1000S1552.28,2000,1000,2000,0,1552.28,0,1000,447.715,0,1000,0Zm277,497c-127.3,56.847-210.32,154.438-241,304-6.08,29.632-5.11,63.315-4,96-1.28,10.323-69.414,102.346-107,151-17.248,22.02-30.581,47.45-50,65-27.153-.36-67.438-9.15-96-3-79.545,17.14-91.475,21.07-154,76-15.649-3.62-53.66-28.62-63-38,0.1-12.11-9.315-68.87-12-78-14.354-48.83-29.621-92.051-60-125-47.7-51.741-118.235-86.334-175-127-37.584-26.925-73.943-78.682-94-128-25.322-62.264-25.2-75.259-37-68-9.69,36.088-20.795,79.745-28,122-8.36,44.605-2.869,119.783,5,159,27.5,137.05,95.615,249.78,182,321,22,16.59,44.311,32.76,78,41,14.657,2.63,32.379.23,50.656,3.72C472,1269,547.46,1349.35,549,1352c0.333,11,2.667,30,3,41,3,18.33,3.362,30.2,9.032,47.88C582.184,1506.87,620.7,1556,674,1591c159.6,99.77,350.8,4.64,395-164,120.01-56.5,243.01-104.01,365-157,22.35-.66,66.41-6.77,103-15,84.92-28.77,156.74-74.29,205-138,29.51-38.96,56.96-84.31,72-137,71.72-251.221-101.38-448.534-278-498C1421.82,450.021,1343.31,475.992,1277,497Zm141,101c-20.37,1.958-43.74,2.846-62,9-87.14,29.373-152.69,90.023-184.49,185.567C1159.95,827.3,1159.7,880.936,1166,918c17.63,103.69,83.35,156.97,167,201,28.59,15.05,74.13,24.62,128,16,110.49-17.68,181.35-74.97,219-169C1756.72,774.406,1597.64,587.589,1418,598Zm-1,68c105.22-1.531,168.09,51.332,199,126,55.05,132.96-45.94,263.44-157,275-157.34,16.37-276-128.742-213-280,20.97-50.353,65.47-93.246,118-112C1381,672,1398.2,666.482,1417,666ZM804,1161c-15.953,1.54-75.27,2.4-130,54,0.294,0.68,5.536,3.16,14,8,23.436,9.37,38.989,25.3,72,29,20.972-21.01,57.977-64.79,75-90C834.181,1161.76,823.85,1161.01,804,1161ZM609,1413c12.908,80.43,84.061,145.36,160,162,11,0.15,35,4,46,4,74.425-3.89,121.89-37.26,136-53,11.688-13.04,49.62-47.43,51-69-18.2,5.4-67.576,31.58-84,38-35.21,13.77-92.764,36.91-146,24-43.819-10.63-83.908-42.65-118-68C640.91,1441.27,622.609,1422.44,609,1413Z"/>
</svg>
